<?xml version="1.0" encoding="utf-8"?>
<!-- Generator: Adobe Illustrator 19.1.0, SVG Export Plug-In . SVG Version: 6.00 Build 0)  -->
<svg version="1.1" xmlns="http://www.w3.org/2000/svg" xmlns:xlink="http://www.w3.org/1999/xlink" x="0px" y="0px"
	 viewBox="0 0 192.2 191.5" style="enable-background:new 0 0 192.2 191.5;" xml:space="preserve">
<style type="text/css">
	.st0{fill:#009BEA;}
	.st1{display:none;}
	.st2{display:inline;fill:none;stroke:#000000;stroke-width:8;stroke-miterlimit:10;}
	.st3{display:inline;}
	.st4{display:inline;fill:none;stroke:#000000;stroke-miterlimit:10;}
	.st5{fill:#2D5352;}
	.st6{fill:#819897;}
</style>
<g id="Ebene_1">
	<g id="Pfeil_25">
	</g>
	<path class="st0" d="M96.2,0C43.3,0,0.4,42.9,0.4,95.8c0,52.9,42.9,95.8,95.8,95.8c52.9,0,95.8-42.9,95.8-95.8
		C191.9,42.9,149.1,0,96.2,0z M140,68.4v68.5h-14.5L108.2,107c-2.4-4.4-6.9-7.4-12.2-7.4c-7.6,0-13.7,6.1-13.7,13.7
		c0,7.6,6.1,13.7,13.7,13.7c5.1,0,9.5-2.8,11.9-6.8l5.4,9.4c-4.4,4.5-10.5,7.4-17.2,7.4c-5.4,0-10.3-1.8-14.3-4.8
		c-5.7,3.1-12.3,4.8-19.2,4.8c-22.7,0-41-18.4-41-41.1C21.5,73.3,40,55,62.3,54.7v0h32l-7.9,13.7H62.8c0,0-0.3,0-0.4,0
		C47.3,68.4,35,80.6,35,95.8c0,15.1,12.3,27.4,27.4,27.4c3.9,0,7.6-0.9,11-2.4c-0.6-1.3-1-4.4-1-4.4c-0.2-1.2-0.2-2.3-0.2-3.6
		c0-13.2,10.8-24,24.1-24c9,0,17.1,5,21.2,12.4l8.8,14.6V68.4H94.2l7.9-13.7h68.7v13.7H140z"/>
	<text transform="matrix(1 0 0 1 -3.0871 219.5673)" style="display:none;fill:#009BEA; font-family:'DINOffc'; font-size:20px;">Concepts and Training</text>
</g>
<g id="Ebene_2" class="st1">
	<path class="st2" d="M230.1,1981H101.4c0,0-24.9-0.8-25,29.5s25,30,25,30s17.4,0.8,24.8-19.9"/>
	<line class="st2" x1="-6.1" y1="1982.5" x2="-6.1" y2="1922.5"/>
	<circle class="st2" cx="140.4" cy="2025.5" r="15"/>
	<line class="st2" x1="155.4" y1="2025.5" x2="155.2" y2="2038"/>
	<path class="st2" d="M155.2,2038c0,1.4,1.1,2.5,2.5,2.5c0,0,1.3,0.2,1.9-0.6"/>
	<path class="st2" d="M157.7,2035"/>
	<path class="st3" d="M190.1,1939.7c-2.9-11.4-10.2-19.5-24.4-19.5c-21,0-29.8,18.5-29.8,37.4c0,18.8,8.8,37.4,29.8,37.4
		c15.4,0,23.5-11.4,25-25.7h16.8c-1.5,23.5-18,39.7-41.8,39.7c-29.3,0-47-23.2-47-51.4c0-27.9,17.7-51.4,47-51.4
		c22.3,0,39.4,12.4,41.6,33.5H190.1z"/>
	<path class="st3" d="M124.2,2140.1c0,3.8,0.8,5.4,3.7,5.4h1.6c0.7,0,1.4-0.1,2.2-0.3v10.9c-2.3,0.8-7.3,1.8-9.9,1.8
		c-6.5,0-10.9-2.2-12.1-8.7c-6.2,6-16.2,8.7-24.6,8.7c-12.8,0-24.3-6.9-24.3-20.7c0-17.7,14.1-20.6,27.3-22.1
		c11.4-2.2,21.3-0.7,21.3-10c0-8.2-8.5-9.6-14.7-9.6c-8.8,0-15,3.6-15.7,11.3H63.5c1.1-18.3,16.5-23.6,32.3-23.6
		c13.9,0,28.4,5.6,28.4,20.6V2140.1z M108.6,2120.3c-4.8,3.2-12.2,3-19.2,4.3c-6.7,1.1-12.8,3.6-12.8,11.8c0,7.1,8.9,9.1,14.4,9.1
		c6.9,0,17.6-3.6,17.6-13.5V2120.3z"/>
	<path class="st3" d="M213.4,1908.6h79.4v14.8h-31.2v83.2h-17.2v-83.2h-31V1908.6z"/>
	<path class="st4" d="M-3.6,2299h4c0,0-1.6,9-10.9,12h-7.1c0,0-9.5-1.4-11.5-11v-19.5c0,0,1-7.5,12.5-11.5H0.9v2.5l-17.7,0.4
		c0,0-7.3,2.9-7.8,7.7c-0.5,4.8,0,19.3,0,19.3s0.4,6.3,7.3,8.4l6.4,0C-11,2307.3-4.1,2305.8-3.6,2299z"/>
	<polygon class="st4" points="-17.1,2269 65.9,2269 65.9,2274 52.9,2274 52.9,2312 48.9,2312 48.9,2274 -17.1,2274 	"/>
	<polyline class="st4" points="49.4,1893 -46.1,1893 -46.1,1903 49.9,1903 49.9,1892.5 	"/>
	<g class="st3">
		<g>
			<g>
				<path class="st5" d="M350.3,2887.9v-4l-0.1-3.9c-0.1-2.1-0.2-4.6-0.4-6.4c-0.7-8.5-3.5-13.2-9.2-15.8c-3.6-1.6-6-1.9-16.9-1.9
					c-10.1,0-14.2,0.7-17.7,3.2c-3.8,2.6-5.3,5.6-5.5,12.6l11.3,0c0.7-4.9,3.7-6,12.9-6c7.4,0,10.1,0.7,11.7,3
					c1.3,1.8,1.8,3.8,2,9.6c-2.5-0.5-5.8-0.8-10.3-0.8v0c-0.2,0-0.4,0-0.6,0c-0.2,0-0.3,0-0.5,0v0c-0.9,0-1.7,0-2.7,0
					c-10.1,0-14.2,0.7-17.7,3.2c-4,2.7-5.3,6.2-5.5,13.9l-0.1,0c0,1.1,0,3.5,0,4.2h0c0.1,1.3,0.1,2.3,0.3,3.5
					c0.4,5.4,2.4,9.3,5.9,11.4c3.3,2,6.2,2.5,15,2.5c2.3,0,28.2,0,28.2,0c0-0.8,0-11.7,0-11.7S350.4,2890.5,350.3,2887.9z
					 M338.6,2897.2c0,7.3-1.9,9-11.5,9.2v0c-0.9,0-1.8,0-2.8,0c-10,0-11.8-1.1-12-8.1h0c0-0.2,0-0.3,0-0.5c0-0.2,0-1-0.1-1.8
					c0.1-7.2,2.3-8.8,13.1-8.8c0.7,0,1.4,0,2,0c9.3,0.2,11.3,1.9,11.3,9.2V2897.2z"/>
			</g>
			<g>
				<path class="st6" d="M398.1,2904.1c-0.5,2.8-0.2,4,2.7,4c4.1,0,4.5-2.9,5.4-6.1l0.6-2.5h11c0.3-3.5,0.4-7.4,0.4-11.4
					c0-1.9-0.1-3.4-0.1-5.1h-15.5L398.1,2904.1z M417.2,2871.6c-0.8-4.6-2.1-7.9-4.3-10.3c-3.5-3.8-8.8-5.3-19.2-5.3
					c0,0-1.3,0-3.9,0.1h-4l-3.9,0.1c-2.1,0.1-4.6,0.2-6.4,0.4c-8.5,0.7-13.2,3.5-15.8,9.4c-1.6,3.7-1.9,9.2-1.9,20.3
					c0,10.4,0.7,20.6,3.2,24.2c3,4.5,6.7,5.8,16.4,5.7h2l4.2-0.1c-1.9-1.9-2.7-5-1.6-9.8l5-23.3h-6.3l2.4-11.4h6.3l1.3-5.9l15.5,0
					l-1.3,5.9H417.2z"/>
			</g>
			<path class="st5" d="M282.5,2871.8c-0.6-5.2-2.9-6-11.8-6c-13.7,0-14.4,0.9-14.4,17.7c0,14.5,0.3,17.5,2.1,20
				c1.6,2.3,4.3,3,11.7,3c10.1,0,12.7-1.2,13.1-7.3c0,0,0,0,0,0h11.2c0,0,0,0,0,0c-0.2,7.9-1.5,11.2-5.6,13.9
				c-3.5,2.5-7.6,3.2-17.7,3.2c-10.8,0-13.2-0.3-16.9-1.9c-5.8-2.6-8.5-7.3-9.2-15.8c-0.2-1.8-0.3-4.3-0.4-6.4l-0.1-3.9v-4
				c-0.1-2.6-0.1-3.9-0.1-3.9c0-10.4,1.4-15.6,5.1-19.2c4.5-4.3,8.9-5.2,23.2-5.2c8.8,0,11.7,0.5,15,2.5c3.5,2.1,5.5,6,5.9,11.4
				c0.1,0.7,0.1,1.3,0.2,1.8"/>
		</g>
		<g>
			<path class="st5" d="M252.4,2934.9v0.5c0,2.1-0.9,2.9-3.6,2.9c-3.4,0-4.1-0.8-4.1-4.5c0-3.5,0.8-4.4,3.9-4.4
				c2.8,0,3.7,0.7,3.7,3.1h-1.7c0-1.4-0.4-1.7-2-1.7c-1.8,0-2.1,0.4-2.1,3.1c0,2.6,0.3,3,2.3,3c1.7,0,1.9-0.3,1.9-2H252.4z"/>
			<path class="st5" d="M261.9,2933.5c0,4-0.6,4.8-3.9,4.8c-3.4,0-4.1-0.7-4.1-4.6c0-3.6,0.7-4.3,4-4.3
				C261.1,2929.3,261.9,2930.1,261.9,2933.5z M255.7,2933.8c0,2.8,0.2,3.1,2.2,3.1c1.9,0,2.2-0.4,2.2-3.1c0-2.7-0.2-3.1-2.2-3.1
				C255.9,2930.7,255.7,2931.1,255.7,2933.8z"/>
			<path class="st5" d="M265.6,2929.4l-0.1,1.3l0,0c0.4-1,1.3-1.5,2.8-1.5c1.5,0,2.5,0.4,2.9,1.2c0.2,0.4,0.3,0.8,0.3,1.8v5.8h-1.7
				v-5.4c0-1.7-0.3-2-1.8-2c-1.6,0-2.3,0.7-2.3,2.2v5.2h-1.8v-8.7H265.6z"/>
			<path class="st5" d="M281.2,2934.9v0.5c0,2.1-1,2.9-3.6,2.9c-3.4,0-4.1-0.8-4.1-4.5c0-3.5,0.8-4.4,3.9-4.4c2.8,0,3.7,0.7,3.7,3.1
				h-1.7c0-1.4-0.4-1.7-2-1.7c-1.8,0-2.1,0.4-2.1,3.1c0,2.6,0.3,3,2.3,3c1.7,0,1.9-0.3,1.9-2H281.2z"/>
			<path class="st5" d="M290.6,2935.4v0.3c0,1.8-1,2.5-3.8,2.5c-3.3,0-4.1-0.8-4.1-4.6c0-3.4,0.8-4.3,3.8-4.3c2.5,0,3.4,0.4,3.8,1.9
				c0.2,0.6,0.2,1.1,0.2,2.9h-6.1v0.3c0,2.1,0.4,2.6,2.2,2.6c1.8,0,2.1-0.2,2.1-1.5H290.6z M288.9,2933c0-1.2,0-1.3-0.2-1.6
				c-0.2-0.5-0.7-0.7-2-0.7c-1.8,0-2.1,0.4-2.2,2.3H288.9z"/>
			<path class="st5" d="M294.3,2929.4l-0.1,1.2l0,0c0.5-1,1.2-1.3,2.8-1.3c2.5,0,3.4,1.1,3.4,4.4c0,3.5-0.8,4.5-3.4,4.5
				c-1.5,0-2.2-0.3-2.7-1.3h0v4.9h-1.7v-12.4H294.3z M294.4,2933.8c0,2.4,0.4,3,2.2,3c1.8,0,2.2-0.5,2.2-3.1c0-2.6-0.4-3.1-2.2-3.1
				C294.7,2930.7,294.4,2931.3,294.4,2933.8z"/>
			<path class="st5" d="M307.7,2930.8h-3.3v4.8c0,1.1,0.2,1.3,1.1,1.3c0.9,0,1.1-0.3,1.1-1.6c0-0.1,0-0.2,0-0.4h1.5
				c0,0.2,0,0.5,0,0.6c0,2-0.7,2.7-2.7,2.7c-2.1,0-2.7-0.5-2.7-2.5v-5h-1.2v-1.3h1.2v-2h1.7v2h3.3V2930.8z"/>
			<path class="st5" d="M314.7,2931.8c-0.1-1.1-0.2-1.2-2-1.2c-1.6,0-1.9,0.2-1.9,1.2c0,0.7,0.1,1,0.5,1.2c0.1,0,0.4,0.1,0.7,0.1
				l1.1,0.1c1.7,0.1,1.7,0.1,2,0.2c1.1,0.2,1.6,1,1.6,2.4c0,2.1-0.9,2.7-3.9,2.7c-2.8,0-3.7-0.6-3.7-2.5v-0.4h1.8c0,0.1,0,0.3,0,0.3
				c0,1,0.4,1.3,2,1.3c1.8,0,2.3-0.2,2.3-1.3c0-1-0.3-1.2-1.2-1.2c-3.9,0-4.7-0.4-4.7-2.6c0-2,0.8-2.5,3.8-2.5
				c2.8,0,3.6,0.5,3.6,2.5H314.7z"/>
			<path class="st5" d="M323.4,2931.9c0-2.1,0.7-2.6,3.5-2.6c3,0,3.9,0.7,3.9,3.1v5.7h-1.7l0.1-1.1l0,0c-0.5,0.9-1.2,1.2-2.8,1.2
				c-2.4,0-3.3-0.7-3.3-2.7c0-2,0.9-2.7,3.3-2.7c1.6,0,2.3,0.2,2.7,0.9h0v-1.2c0-1.7-0.3-2-2-2c-1.5,0-1.9,0.2-1.9,1.2v0.1H323.4z
				 M324.8,2935.4c0,1.3,0.4,1.6,2.1,1.6c1.7,0,2.2-0.4,2.2-1.4c0-1.2-0.5-1.5-2.3-1.5C325.3,2934.1,324.8,2934.3,324.8,2935.4z"/>
			<path class="st5" d="M334.9,2929.4l-0.1,1.3l0,0c0.4-1,1.3-1.5,2.8-1.5c1.5,0,2.5,0.4,2.9,1.2c0.2,0.4,0.3,0.8,0.3,1.8v5.8H339
				v-5.4c0-1.7-0.3-2-1.8-2c-1.6,0-2.3,0.7-2.3,2.2v5.2h-1.8v-8.7H334.9z"/>
			<path class="st5" d="M350.3,2938.1h-1.7l0.1-1.3l0,0c-0.4,1-1.2,1.4-2.8,1.4c-1.2,0-2.1-0.3-2.6-0.8c-0.6-0.7-0.8-1.6-0.8-3.7
				c0-3.4,0.8-4.4,3.3-4.4c1.6,0,2.4,0.4,2.8,1.3l0,0v-4.9h1.7V2938.1z M344.2,2933.6c0,2.7,0.4,3.2,2.1,3.2c1.9,0,2.2-0.5,2.2-3.3
				c0-2.3-0.4-2.8-2.3-2.8C344.6,2930.7,344.2,2931.3,344.2,2933.6z"/>
			<path class="st5" d="M363.6,2930.8h-3.3v4.8c0,1.1,0.2,1.3,1.1,1.3c0.9,0,1.1-0.3,1.1-1.6c0-0.1,0-0.2,0-0.4h1.5
				c0,0.2,0,0.5,0,0.6c0,2-0.7,2.7-2.7,2.7c-2.1,0-2.7-0.5-2.7-2.5v-5h-1.2v-1.3h1.2v-2h1.7v2h3.3V2930.8z"/>
			<path class="st5" d="M370.1,2931.9c0-0.9-0.3-1.3-1.2-1.3c-1.3,0-1.8,0.6-1.8,2.3v5.2h-1.7v-8.7h1.7l-0.1,1.1l0,0
				c0.6-0.9,1.2-1.3,2.4-1.3c1.7,0,2.3,0.8,2.3,2.7"/>
			<path class="st5" d="M372.4,2931.9c0-2.1,0.7-2.6,3.5-2.6c3,0,3.9,0.7,3.9,3.1v5.7h-1.7l0.1-1.1l0,0c-0.5,0.9-1.2,1.2-2.8,1.2
				c-2.4,0-3.3-0.7-3.3-2.7c0-2,0.9-2.7,3.3-2.7c1.6,0,2.3,0.2,2.7,0.9h0v-1.2c0-1.7-0.3-2-2-2c-1.5,0-1.9,0.2-1.9,1.2v0.1H372.4z
				 M373.8,2935.4c0,1.3,0.4,1.6,2.1,1.6c1.7,0,2.2-0.4,2.2-1.4c0-1.2-0.5-1.5-2.3-1.5C374.3,2934.1,373.8,2934.3,373.8,2935.4z"/>
			<path class="st5" d="M383.9,2927.3h-1.7v-1.6h1.7V2927.3z M383.9,2938.1h-1.7v-8.7h1.7V2938.1z"/>
			<path class="st5" d="M387.9,2929.4l-0.1,1.3l0,0c0.4-1,1.3-1.5,2.8-1.5c1.5,0,2.5,0.4,2.9,1.2c0.2,0.4,0.3,0.8,0.3,1.8v5.8H392
				v-5.4c0-1.7-0.3-2-1.8-2c-1.6,0-2.3,0.7-2.3,2.2v5.2h-1.8v-8.7H387.9z"/>
			<path class="st5" d="M397.8,2927.3h-1.7v-1.6h1.7V2927.3z M397.8,2938.1h-1.7v-8.7h1.7V2938.1z"/>
			<path class="st5" d="M401.8,2929.4l-0.1,1.3l0,0c0.4-1,1.3-1.5,2.8-1.5c1.5,0,2.5,0.4,2.9,1.2c0.2,0.4,0.3,0.8,0.3,1.8v5.8H406
				v-5.4c0-1.7-0.3-2-1.8-2c-1.6,0-2.3,0.7-2.3,2.2v5.2h-1.8v-8.7H401.8z"/>
			<path class="st5" d="M417.6,2938.5c0,2.7-0.9,3.5-3.9,3.5c-1.9,0-2.9-0.4-3.3-1.2c-0.2-0.4-0.2-0.8-0.2-1.7h1.6
				c0,1.3,0.3,1.5,2,1.5c1.7,0,2.2-0.4,2.2-1.9v-1.9h0c-0.4,0.9-1.2,1.3-2.7,1.3c-1.2,0-2.1-0.3-2.6-0.9c-0.6-0.7-0.8-1.6-0.8-3.3
				c0-2.3,0.2-3.2,0.9-3.9c0.5-0.5,1.4-0.8,2.6-0.8c1.5,0,2.3,0.4,2.7,1.4l0,0l-0.1-1.3h1.7V2938.5z M411.5,2933.7
				c0,2.6,0.3,3.1,2.1,3.1c1.8,0,2.2-0.6,2.2-3.1c0-2.5-0.4-3-2.2-3C411.9,2930.7,411.5,2931.2,411.5,2933.7z"/>
		</g>
	</g>
</g>
</svg>
